<svg id="Layer_1" data-name="Layer 1" xmlns="http://www.w3.org/2000/svg" viewBox="0 0 27.05 27.05"><title>asianalogo-arrow</title><path d="M1.12,12.37a2.88,2.88,0,0,0,.2,1.12,3.22,3.22,0,0,0,4.46,1.79L20.42,9.39,14.65,24a3.27,3.27,0,0,0,1.82,4.46,3.16,3.16,0,0,0,1.12.2,3.3,3.3,0,0,0,3.12-2.39c.09-.24,7-19.33,7.2-19.8a5.08,5.08,0,0,0,.25-1.35,3.47,3.47,0,0,0-3.5-3.51,4.21,4.21,0,0,0-1.38.26C22.94,2,5,8.66,3.49,9.23a3.35,3.35,0,0,0-2.37,3.14" transform="translate(-1.12 -1.62)" fill="#e30613"/></svg>