<svg id="Layer_1" data-name="Layer 1" xmlns="http://www.w3.org/2000/svg" viewBox="0 0 96.06 96.06"><title>language</title><circle cx="48.03" cy="48.03" r="45.03" fill="none" stroke="#fff" stroke-linecap="round" stroke-miterlimit="10" stroke-width="6"/><path d="M13,25.39a100.52,100.52,0,0,0,37.27,7.77A87.68,87.68,0,0,0,87,24.62" transform="translate(-1.97 -1.97)" fill="none" stroke="#fff" stroke-linecap="round" stroke-miterlimit="10" stroke-width="6"/><path d="M27,13.21S16.28,29.65,16.28,49.83c0,20.45,11.51,37.4,11.51,37.4" transform="translate(-1.97 -1.97)" fill="none" stroke="#fff" stroke-linecap="round" stroke-miterlimit="10" stroke-width="6"/><path d="M73.68,13.1S84.42,29.53,84.42,49.72c0,20.44-11.52,37.4-11.52,37.4" transform="translate(-1.97 -1.97)" fill="none" stroke="#fff" stroke-linecap="round" stroke-miterlimit="10" stroke-width="6"/><path d="M42.75,8.05S32.4,27.46,32.4,50.4c0,23.23,11.39,41.76,11.39,41.76" transform="translate(-1.97 -1.97)" fill="none" stroke="#fff" stroke-linecap="round" stroke-miterlimit="10" stroke-width="6"/><path d="M57.25,8.05S67.6,27.46,67.6,50.4c0,23.23-11.39,41.76-11.39,41.76" transform="translate(-1.97 -1.97)" fill="none" stroke="#fff" stroke-linecap="round" stroke-miterlimit="10" stroke-width="6"/><path d="M5.75,47.35S29.3,53.58,51,53.58a130.83,130.83,0,0,0,43.21-7.16" transform="translate(-1.97 -1.97)" fill="none" stroke="#fff" stroke-linecap="round" stroke-miterlimit="10" stroke-width="6"/><path d="M13.94,76.32A113.72,113.72,0,0,1,50.6,70a115.51,115.51,0,0,1,36.15,5.6" transform="translate(-1.97 -1.97)" fill="none" stroke="#fff" stroke-linecap="round" stroke-miterlimit="10" stroke-width="6"/><path d="M30.8,90.09A57,57,0,0,1,50,86.19a61.44,61.44,0,0,1,19.2,3.57" transform="translate(-1.97 -1.97)" fill="none" stroke="#fff" stroke-linecap="round" stroke-miterlimit="10" stroke-width="6"/><path d="M29.56,10.58s10.43,5,20.2,5c9,0,20.68-5.35,20.68-5.35" transform="translate(-1.97 -1.97)" fill="none" stroke="#fff" stroke-linecap="round" stroke-miterlimit="10" stroke-width="6"/><line x1="48.03" y1="3" x2="48.03" y2="93.06" fill="none" stroke="#fff" stroke-linecap="round" stroke-miterlimit="10" stroke-width="6"/></svg>