<svg id="레이어_1" data-name="레이어 1" xmlns="http://www.w3.org/2000/svg" viewBox="0 0 96.38 71.67"><path d="M50,50" transform="translate(-1.81 -14.17)" style="fill:#040000"/><path d="M46.08,84.79,64.17,58.73,64,58.64c7.73.32,14.22.48,17.61.33,5.12-.23,16.6-3.13,16.6-8.7,0-5.91-10.9-8.84-16.6-9.26-3.46-.25-9.87-.13-17.48.18l-18-25.93A2.54,2.54,0,0,0,44,14.17H41.18c-1.75,0-2.48,1.72-1.91,3.37L47.7,42.05c-11.94.71-23.93,1.59-31,2.13L6,29.07a1.18,1.18,0,0,0-1.6-.32L2.37,30a1.19,1.19,0,0,0-.5,1.37L6.79,46.77,6.47,47a3.94,3.94,0,0,0-2,3.31v.07a4,4,0,0,0,2.26,3.34l0,0L1.91,68.81a1.34,1.34,0,0,0,.57,1.55l1.8,1.11a1.34,1.34,0,0,0,1.8-.37l10.65-15-.09,0c7,.45,19,1.2,30.85,1.84L39,82.62a2.29,2.29,0,0,0,2,3.21h3.08A2.43,2.43,0,0,0,46.08,84.79Z" transform="translate(-1.81 -14.17)" style="fill:#fff"/></svg>