<svg id="레이어_1" data-name="레이어 1" xmlns="http://www.w3.org/2000/svg" viewBox="0 0 243.19 45.69"><title>asianalogo</title><path d="M308.84,264a3.54,3.54,0,0,0,.26,1.39,4,4,0,0,0,5.51,2.21l18.08-7.27s-6.88,17.4-7.13,18.05a4,4,0,0,0,2.25,5.52,4.15,4.15,0,0,0,1.39.24,4.08,4.08,0,0,0,3.85-2.95c.11-.3,8.7-23.88,8.89-24.45a6.64,6.64,0,0,0,.31-1.67,4.29,4.29,0,0,0-4.33-4.35,5.29,5.29,0,0,0-1.7.33c-.41.13-22.56,8.37-24.44,9.08a4.14,4.14,0,0,0-2.94,3.87" transform="translate(-99.06 -250.7)" fill="#e60013"/><path d="M107.63,280.69l-2.5,8h5ZM112.32,296l-1.21-4.09h-6.93L103,296h-3.9l6.66-19.63h3.83L116.22,296Z" transform="translate(-99.06 -250.7)" fill="#fff"/><path d="M130.69,293.31c-1.27,2.31-3.78,3.09-6.28,3.09-3.31,0-6.37-1.37-7.34-4.79a10.8,10.8,0,0,1-.31-2.28h3.64a5.82,5.82,0,0,0,.34,1.54,3.7,3.7,0,0,0,3.72,2.24c1.26,0,3.14-.52,3.14-2.08a1.86,1.86,0,0,0-.25-.86c-.41-.84-1.94-1.42-2.75-1.75a25.3,25.3,0,0,1-5.2-2.53,5.07,5.07,0,0,1-2-4.15c0-3.78,3.29-5.76,6.72-5.76,2.48,0,5.1,1.07,6.18,3.46a6.69,6.69,0,0,1,.58,2.68h-3.64a2.92,2.92,0,0,0-3.2-2.88c-1.23,0-2.85.67-2.85,2.12s1.71,1.89,2.77,2.3a27.73,27.73,0,0,1,5.46,2.45,4.88,4.88,0,0,1,2,4.25,6,6,0,0,1-.75,2.95" transform="translate(-99.06 -250.7)" fill="#fff"/><rect x="34.97" y="25.67" width="3.78" height="19.63" fill="#fff"/><path d="M148.33,280.69l-2.5,8h5ZM153,296l-1.22-4.09h-6.93L143.66,296h-3.89l6.65-19.63h3.83L156.93,296Z" transform="translate(-99.06 -250.7)" fill="#fff"/><polygon points="71.07 45.3 62.85 31.48 62.85 45.3 59.26 45.3 59.26 25.67 63.3 25.67 71.28 39.49 71.28 25.67 74.86 25.67 74.86 45.3 71.07 45.3" fill="#fff"/><path d="M183.89,280.69l-2.5,8h5Zm4.7,15.32-1.23-4.09h-6.92L179.22,296h-3.89L182,276.38h3.84L192.49,296Z" transform="translate(-99.06 -250.7)" fill="#fff"/><path d="M209.9,280.67l-2.5,8h5ZM214.6,296l-1.22-4.09h-6.93L205.23,296h-3.9L208,276.37h3.84L218.49,296Z" transform="translate(-99.06 -250.7)" fill="#fff"/><rect x="121.46" y="25.66" width="3.77" height="19.63" fill="#fff"/><path d="M236.21,280a7.39,7.39,0,0,0-2.93-.36h-1.8v5.68H234c2,0,3.75-.56,3.75-2.93a2.47,2.47,0,0,0-1.5-2.39m2,16.05-4-7.51h-2.72V296h-3.79V276.37H233a13.58,13.58,0,0,1,4.75.5,5.58,5.58,0,0,1,3.81,5.54,5.65,5.65,0,0,1-3.48,5.44L242.6,296Z" transform="translate(-99.06 -250.7)" fill="#fff"/><polygon points="145.43 45.29 145.43 25.66 149.29 25.66 149.29 42.07 157.83 42.07 157.83 45.29 145.43 45.29" fill="#fff"/><rect x="160.05" y="25.66" width="3.79" height="19.63" fill="#fff"/><polygon points="179.04 45.29 170.82 31.48 170.82 45.29 167.23 45.29 167.23 25.66 171.26 25.66 179.24 39.48 179.24 25.66 182.82 25.66 182.82 45.29 179.04 45.29" fill="#fff"/><polygon points="186.19 45.29 186.19 25.66 198.57 25.66 198.57 28.89 189.98 28.89 189.98 33.5 197.79 33.5 197.79 36.73 189.98 36.73 189.98 42.07 198.87 42.07 198.87 45.29 186.19 45.29" fill="#fff"/><path d="M313,293.3c-1.28,2.3-3.79,3.09-6.29,3.09-3.3,0-6.36-1.37-7.33-4.79a9.71,9.71,0,0,1-.31-2.28h3.64a5.75,5.75,0,0,0,.34,1.53,3.71,3.71,0,0,0,3.72,2.25c1.25,0,3.14-.52,3.14-2.08a1.86,1.86,0,0,0-.25-.86c-.42-.84-1.94-1.42-2.75-1.75a25,25,0,0,1-5.2-2.53,5,5,0,0,1-2-4.14c0-3.79,3.28-5.76,6.72-5.76,2.48,0,5.09,1,6.18,3.44a7,7,0,0,1,.59,2.7h-3.65a2.91,2.91,0,0,0-3.19-2.89c-1.23,0-2.87.67-2.87,2.11s1.73,1.89,2.78,2.31a28.51,28.51,0,0,1,5.45,2.45,4.86,4.86,0,0,1,2,4.25,6,6,0,0,1-.75,2.95" transform="translate(-99.06 -250.7)" fill="#fff"/></svg>