<svg id="Layer_1" data-name="Layer 1" xmlns="http://www.w3.org/2000/svg" viewBox="0 0 30 30"><title>language</title><circle cx="15" cy="15" r="12.65" fill="none" stroke="#fff" stroke-linecap="round" stroke-miterlimit="10" stroke-width="1.5"/><path d="M4.6,8.09a28.28,28.28,0,0,0,10.47,2.18A24.62,24.62,0,0,0,25.4,7.87" fill="none" stroke="#fff" stroke-linecap="round" stroke-miterlimit="10" stroke-width="1.5"/><path d="M8.54,4.66A20.93,20.93,0,0,0,5.52,15,20.88,20.88,0,0,0,8.76,25.46" fill="none" stroke="#fff" stroke-linecap="round" stroke-miterlimit="10" stroke-width="1.5"/><path d="M21.65,4.63a20.93,20.93,0,0,1,3,10.29,20.92,20.92,0,0,1-3.23,10.51" fill="none" stroke="#fff" stroke-linecap="round" stroke-miterlimit="10" stroke-width="1.5"/><path d="M13,3.21a28.29,28.29,0,0,0-2.91,11.9,24.84,24.84,0,0,0,3.2,11.74" fill="none" stroke="#fff" stroke-linecap="round" stroke-miterlimit="10" stroke-width="1.5"/><path d="M17,3.21A28.29,28.29,0,0,1,20,15.11a24.84,24.84,0,0,1-3.2,11.74" fill="none" stroke="#fff" stroke-linecap="round" stroke-miterlimit="10" stroke-width="1.5"/><path d="M2.56,14.25A57.78,57.78,0,0,0,15.29,16a36.71,36.71,0,0,0,12.15-2" fill="none" stroke="#fff" stroke-linecap="round" stroke-miterlimit="10" stroke-width="1.5"/><path d="M4.87,22.4a31.9,31.9,0,0,1,10.3-1.79,32.58,32.58,0,0,1,10.16,1.57" fill="none" stroke="#fff" stroke-linecap="round" stroke-miterlimit="10" stroke-width="1.5"/><path d="M9.61,26.27A15.93,15.93,0,0,1,15,25.17a17.28,17.28,0,0,1,5.39,1" fill="none" stroke="#fff" stroke-linecap="round" stroke-miterlimit="10" stroke-width="1.5"/><path d="M9.25,3.92a15.44,15.44,0,0,0,5.68,1.41,17.35,17.35,0,0,0,5.82-1.5" fill="none" stroke="#fff" stroke-linecap="round" stroke-miterlimit="10" stroke-width="1.5"/><line x1="15" y1="2.35" x2="15" y2="27.65" fill="none" stroke="#fff" stroke-linecap="round" stroke-miterlimit="10" stroke-width="1.5"/></svg>