<svg id="레이어_1" data-name="레이어 1" xmlns="http://www.w3.org/2000/svg" viewBox="0 0 95.99 82.14"><path d="M50,50" transform="translate(-2.01 -8.93)" fill="#040000"/><path d="M92.69,19.23c-1.58.35-4.34,1.09-5.64,1.45,0-.08-.07-.15-.1-.22a56.69,56.69,0,0,0,5.27-4.06C94.58,14.28,96,9.57,96,9.57s-6.33,3.52-8.52,4.28A42.55,42.55,0,0,1,83.18,15a20.07,20.07,0,0,0-32.8,22c-4-.35-8.17-.8-10.83-1.3a62.34,62.34,0,0,1-18.7-7.54C15,24.6,7,15.11,7,15.11S1.66,20.06,5.07,32.18a28.51,28.51,0,0,0,7.3,12.25s-1.43.46-4.71-.71C4,42.43,2,41.49,2,41.49s.1,7.68,4.71,12.83a23.42,23.42,0,0,0,8.71,6.13,8.91,8.91,0,0,1-4,.47l-2.36-.24s2,5.26,4.95,8a16,16,0,0,0,9.66,4.24c2.12.12,2.91.18,2.91.18a40,40,0,0,1-6,5.71,27.48,27.48,0,0,1-9.07,3.77c-3.3.71-8.84-.24-8.84-.24a26.45,26.45,0,0,0,10.6,6.36c6.36,1.89,20.5,2.83,29.68,2.12s23.4-6.67,32.59-18.21A60.68,60.68,0,0,0,89.16,40.54c.57-4.47-.24-13.66-.24-13.66a42.69,42.69,0,0,0,4.72-4.59C95.48,20.14,98,16.87,98,16.87A24,24,0,0,1,92.69,19.23Z" transform="translate(-2.01 -8.93)" fill="#fff"/></svg>