<svg id="Layer_1" data-name="Layer 1" xmlns="http://www.w3.org/2000/svg" viewBox="0 0 895.71 206.77"><title>lululemonlogo</title><path d="M155.53,26.17A103.39,103.39,0,1,0,258.91,129.55,103.38,103.38,0,0,0,155.53,26.17Zm72,159.54a61.22,61.22,0,0,1-7.52,7.95,36.67,36.67,0,0,1-16.34,8.6c-9.46,2.37-19.4-.24-27.51-5.59-8.69-5.72-14.18-15.39-15-23.86-1-9.88,5.8-23,9.67-34s5.81-15.27,10.32-32.46-1.5-27.31-4.3-29.88S169.5,69.2,156.6,69.2,135.75,74.14,133,78s-3.87,7.31-4.09,20,12.26,43.86,15.91,53.31,7.74,18.06,3,29.24a37.38,37.38,0,0,1-13.11,16.34,40.36,40.36,0,0,1-27.09,5.59c-15.69-2.37-26.22-20.85-26.22-20.85a33.8,33.8,0,0,0,13.32,4.94c8.09,1.3,13.12-.86,19.57-6.66s6-10.14,5.59-16.13c-.44-5.78-6.88-18.05-12.69-29.23S96,111.76,94.48,96.5s5.37-24.94,15.26-31.39,26.66-9.24,51.59-9,38,7.53,45.15,12.9,11.82,17,9.24,33.54-10.1,27.59-14.83,37c-4.81,9.54-9.46,21.07-9.89,28.59s6.58,13.92,12.68,17c5.87,2.95,11.22,1.87,16.13.43a70.73,70.73,0,0,0,9.88-3.86A25.72,25.72,0,0,1,227.54,185.71Z" transform="translate(-52.15 -26.17)" fill="#d22030"/><path d="M327.14,81.59v94.77H309.21V81.59Z" transform="translate(-52.15 -26.17)"/><path d="M411.79,105.41v71H393.73v-9a23.76,23.76,0,0,1-9,7.23,28,28,0,0,1-12.1,2.63,30.16,30.16,0,0,1-14.73-3.52,24.81,24.81,0,0,1-10.05-10.38A34.18,34.18,0,0,1,344.17,147V105.41H362.1v39.06q0,8.46,4.22,13T377.85,162q7.42,0,11.65-4.55t4.23-13V105.41Z" transform="translate(-52.15 -26.17)"/><path d="M447.39,81.59v94.77H429.46V81.59Z" transform="translate(-52.15 -26.17)"/><path d="M532,105.41v71H514v-9a23.76,23.76,0,0,1-9,7.23,28,28,0,0,1-12.1,2.63,30.16,30.16,0,0,1-14.73-3.52,24.81,24.81,0,0,1-10.05-10.38A34.3,34.3,0,0,1,464.42,147V105.41h17.93v39.06q0,8.46,4.22,13T498.1,162q7.42,0,11.65-4.55t4.23-13V105.41Z" transform="translate(-52.15 -26.17)"/><path d="M567.64,81.59v94.77H549.71V81.59Z" transform="translate(-52.15 -26.17)"/><path d="M650.75,146.27H598.89q.63,7.68,5.37,12a16.57,16.57,0,0,0,11.66,4.36q10,0,14.21-8.58h19.34a32.36,32.36,0,0,1-11.78,16.84q-8.72,6.6-21.39,6.59A37,37,0,0,1,597.92,173a32,32,0,0,1-12.67-12.87,39.36,39.36,0,0,1-4.55-19.21,40.17,40.17,0,0,1,4.48-19.34,31.29,31.29,0,0,1,12.55-12.81,37.69,37.69,0,0,1,18.57-4.48,37.29,37.29,0,0,1,18.12,4.35A30.75,30.75,0,0,1,646.85,121a37.46,37.46,0,0,1,4.41,18.38A42.57,42.57,0,0,1,650.75,146.27Zm-18.06-12a14.22,14.22,0,0,0-5-11.08A17.74,17.74,0,0,0,615.79,119a16.28,16.28,0,0,0-11.21,4q-4.55,4-5.57,11.21Z" transform="translate(-52.15 -26.17)"/><path d="M773.5,112.39q8,8,8,22.35v41.62H763.57V137.17q0-8.32-4.22-12.74T747.82,120q-7.29,0-11.59,4.42t-4.29,12.74v39.19H714V137.17q0-8.32-4.22-12.74T698.26,120q-7.43,0-11.72,4.42t-4.29,12.74v39.19H664.33v-71h17.92V114a24,24,0,0,1,8.9-7,27.74,27.74,0,0,1,12-2.56A30.74,30.74,0,0,1,718,107.91a24.68,24.68,0,0,1,10.12,10,25.84,25.84,0,0,1,10-9.86,28.7,28.7,0,0,1,14.28-3.71Q765.5,104.39,773.5,112.39Z" transform="translate(-52.15 -26.17)"/><path d="M811.6,173a32.65,32.65,0,0,1-12.87-12.87,38.55,38.55,0,0,1-4.68-19.21,37.76,37.76,0,0,1,4.8-19.21A33.42,33.42,0,0,1,812,108.81a40.17,40.17,0,0,1,37.14,0,33.42,33.42,0,0,1,13.13,12.87,37.76,37.76,0,0,1,4.8,19.21,37.06,37.06,0,0,1-4.93,19.21A34.17,34.17,0,0,1,848.8,173,38.74,38.74,0,0,1,830,177.51,37.36,37.36,0,0,1,811.6,173Zm27.59-13.45a17.26,17.26,0,0,0,6.86-7.11,24,24,0,0,0,2.56-11.52q0-10.12-5.32-15.56a17.46,17.46,0,0,0-13-5.45,17.07,17.07,0,0,0-12.87,5.45q-5.17,5.45-5.18,15.56t5.06,15.56A16.64,16.64,0,0,0,830,161.89,18.63,18.63,0,0,0,839.19,159.52Z" transform="translate(-52.15 -26.17)"/><path d="M940,112.39q7.82,8,7.81,22.35v41.62H929.92V137.17q0-8.44-4.22-13t-11.53-4.54q-7.42,0-11.72,4.54t-4.28,13v39.19H880.24v-71h17.93v8.84a24.84,24.84,0,0,1,9.15-7.24,28.46,28.46,0,0,1,12.23-2.62Q932.23,104.39,940,112.39Z" transform="translate(-52.15 -26.17)"/></svg>